<?xml version="1.0" encoding="UTF-8"?>
<svg width="20px" height="18px" viewBox="0 0 20 18" version="1.1" xmlns="http://www.w3.org/2000/svg" xmlns:xlink="http://www.w3.org/1999/xlink">
    <title>Shape</title>
    <g id="Prototyp" stroke="none" stroke-width="1" fill="none" fill-rule="evenodd">
        <g id="Detailpage---Variante-A.1" transform="translate(-153.000000, -146.000000)" fill="#1F5DA6" fill-rule="nonzero" stroke="#1F5DA6" stroke-width="0.5">
            <g id="breadcrump" transform="translate(154.000000, 145.000000)">
                <g id="noun_Home_3603842" transform="translate(0.000000, 2.000000)">
                    <path d="M9.27006211,0.0915849727 C9.11145421,-0.0305283242 8.89283249,-0.0305283242 8.73422459,0.0915849727 L0.160824164,6.82887032 C-0.0235039448,6.97624844 -0.0535108463,7.23731824 0.0922369609,7.42259359 C0.242271468,7.60365814 0.508046881,7.63313376 0.696661691,7.48996645 L0.855269599,7.35943154 L0.855269599,15.5789197 C0.855269599,15.8105138 1.04817111,16 1.28393962,16 L7.28531992,16 L10.7146801,16 L16.7160604,16 C16.9518289,16 17.1447304,15.8105138 17.1447304,15.5789197 L17.1447304,7.35943154 L17.307625,7.48575564 C17.3847856,7.54891769 17.479093,7.57839332 17.5734004,7.57839332 C17.6977147,7.57839332 17.822029,7.52365287 17.907763,7.41838279 C18.0535108,7.23731824 18.0235039,6.97203763 17.8391758,6.82465952 L9.27006211,0.0915849727 Z M10.2860101,15.1578393 L7.71398994,15.1578393 L7.71398994,11.7891967 L10.2860101,11.7891967 L10.2860101,15.1578393 Z M16.2873904,15.1578393 L11.1433501,15.1578393 L11.1433501,11.3681163 C11.1433501,11.1365221 10.9504486,10.947036 10.7146801,10.947036 L7.28531992,10.947036 C7.0495514,10.947036 6.85664989,11.1365221 6.85664989,11.3681163 L6.85664989,15.1578393 L1.71260964,15.1578393 L1.71260964,6.68570301 L9,0.959010461 L16.2873904,6.68570301 L16.2873904,15.1578393 Z" id="Shape"></path>
                </g>
            </g>
        </g>
    </g>
</svg>