<?xml version="1.0" encoding="UTF-8"?>
<svg width="26px" height="25px" viewBox="0 0 26 25" version="1.1" xmlns="http://www.w3.org/2000/svg" xmlns:xlink="http://www.w3.org/1999/xlink">
    <title>Shape</title>
    <g id="Symbols" stroke="none" stroke-width="1" fill="none" fill-rule="evenodd">
        <g id="Navigation/Header/Web/open" transform="translate(-1129.000000, -43.000000)" fill="#0061AB" fill-rule="nonzero" stroke="#0061AB" stroke-width="0.5">
            <g id="Punkte" transform="translate(1130.038016, 36.000000)">
                <g id="suche" transform="translate(11.980326, 19.981653) scale(-1, 1) translate(-11.980326, -19.981653) translate(-0.000000, 7.999990)">
                    <path d="M21.5269821,2.43704731 C18.282832,-0.812349103 13.0223295,-0.812349103 9.77743556,2.43704731 C6.75590212,5.4630832 6.55203915,10.2393573 9.15903426,13.5060196 L-9.09494702e-13,22.6777781 L1.28401958,23.9633246 L10.4385514,14.7960685 C13.7014551,17.4367732 18.4942121,17.2396444 21.5269821,14.2031158 C24.771876,10.9536803 24.771876,5.68569984 21.5269821,2.43704731 Z M20.3643719,13.0382741 C17.7610962,15.6453083 13.5410114,15.6453083 10.9377357,13.0382741 C8.33446003,10.431279 8.33446003,6.20516476 10.9377357,3.59816966 C13.5410114,0.991174551 17.7610962,0.991174551 20.3643719,3.59816966 C22.9676476,6.20516476 22.9676868,10.4319837 20.3643719,13.0382741 Z" id="Shape"></path>
                </g>
            </g>
        </g>
    </g>
</svg>